<svg width="90" height="102" viewBox="0 0 90 102" fill="none" xmlns="http://www.w3.org/2000/svg">
<path d="M32.7105 49.6425C32.7105 50.5823 32.0482 51.3342 31.2204 51.3342H25.6276C24.7997 51.3342 24.1374 50.5823 24.1374 49.6425V43.2936C24.1374 42.3538 24.7997 41.602 25.6276 41.602H31.2204C32.0482 41.602 32.7105 42.3538 32.7105 43.2936V49.6425ZM44.3929 43.3145C44.3929 42.3747 43.7306 41.6229 42.9027 41.6229H37.3099C36.482 41.6229 35.8197 42.3747 35.8197 43.3145V49.6634C35.8197 50.6032 36.482 51.355 37.3099 51.355H42.9027C43.7306 51.355 44.3929 50.6032 44.3929 49.6634V43.3145ZM56.0752 43.3145C56.0752 42.3747 55.4129 41.6229 54.585 41.6229H48.9922C48.1643 41.6229 47.502 42.3747 47.502 43.3145V49.6634C47.502 50.6032 48.1643 51.355 48.9922 51.355H54.585C55.4129 51.355 56.0752 50.6032 56.0752 49.6634V43.3145ZM32.7105 56.2211C32.7105 55.2813 32.0482 54.5295 31.2204 54.5295H25.6276C24.7997 54.5295 24.1374 55.2813 24.1374 56.2211V62.57C24.1374 63.5098 24.7997 64.2617 25.6276 64.2617H31.2204C32.0482 64.2617 32.7105 63.5098 32.7105 62.57V56.2211ZM44.3929 56.2211C44.3929 55.2813 43.7306 54.5295 42.9027 54.5295H37.3099C36.482 54.5295 35.8197 55.2813 35.8197 56.2211V62.57C35.8197 63.5098 36.482 64.2617 37.3099 64.2617H42.9027C43.7306 64.2617 44.3929 63.5098 44.3929 62.57V56.2211ZM54.585 54.5295H48.9922C48.1643 54.5295 47.502 55.2813 47.502 56.2211V62.57C47.502 63.5098 48.1643 64.2617 48.9922 64.2617H54.585C55.4129 64.2617 56.0752 63.5098 56.0752 62.57V56.2211C56.0752 55.2813 55.4129 54.5295 54.585 54.5295ZM19.5196 67.4361H13.9452C13.1173 67.4361 12.455 68.188 12.455 69.1278V75.4767C12.455 76.4165 13.1173 77.1683 13.9452 77.1683H19.538C20.3659 77.1683 21.0282 76.4165 21.0282 75.4767V69.1278C21.0282 68.188 20.3475 67.4361 19.5196 67.4361ZM21.0282 56.2211C21.0282 55.2813 20.3659 54.5295 19.538 54.5295H13.9452C13.1173 54.5295 12.455 55.2813 12.455 56.2211V62.57C12.455 63.5098 13.1173 64.2617 13.9452 64.2617H19.538C20.3659 64.2617 21.0282 63.5098 21.0282 62.57V56.2211V56.2211ZM42.9027 67.4361H37.3099C36.482 67.4361 35.8197 68.188 35.8197 69.1278V75.4767C35.8197 76.4165 36.482 77.1683 37.3099 77.1683H42.9027C43.7306 77.1683 44.3929 76.4165 44.3929 75.4767V69.1278C44.3929 68.188 43.7306 67.4361 42.9027 67.4361ZM31.2204 67.4361H25.6276C24.7997 67.4361 24.1374 68.188 24.1374 69.1278V75.4767C24.1374 76.4165 24.7997 77.1683 25.6276 77.1683H31.2204C32.0482 77.1683 32.7105 76.4165 32.7105 75.4767V69.1278C32.7105 68.188 32.0482 67.4361 31.2204 67.4361ZM66.2674 51.355C67.0953 51.355 67.7576 50.6032 67.7576 49.6634V43.3145C67.7576 42.3747 67.0953 41.6229 66.2674 41.6229H60.6746C59.8467 41.6229 59.1844 42.3747 59.1844 43.3145V49.6634C59.1844 50.6032 59.8467 51.355 60.6746 51.355H66.2674ZM8.77555 90.9521H51.2183C50.5376 88.5295 50.1513 85.9398 50.1329 83.2666H8.77555C7.67171 83.2666 6.78863 82.2432 6.78863 81.0111V35.629H73.332V56.7432C75.6868 56.7641 77.9681 57.1609 80.1022 57.9337V19.7359C80.1022 14.2432 76.1652 9.77396 71.3267 9.77396H61.5025V3.63391C61.5025 1.62899 60.0675 0 58.3013 0H53.3156C51.5495 0 50.1145 1.62899 50.1145 3.63391V9.79484H29.9877V3.63391C29.9877 1.62899 28.5527 0 26.7866 0H21.8009C20.0348 0 18.5998 1.62899 18.5998 3.63391V9.79484H8.77555C3.93704 9.79484 0 14.2641 0 19.7568V81.0111C0 86.4828 3.93704 90.9521 8.77555 90.9521ZM90 82.9742C90 93.4791 82.4939 102 73.24 102C63.9861 102 56.48 93.4791 56.48 82.9742C56.48 72.4693 63.9861 63.9484 73.24 63.9484C82.4939 63.9484 90 72.4693 90 82.9742ZM81.7028 78.0455C81.7028 77.4398 81.5004 76.855 81.1141 76.4373C80.323 75.5393 79.0536 75.5393 78.2625 76.4373L70.9771 84.7076L68.1807 81.5332C67.3896 80.6351 66.1202 80.6351 65.3291 81.5332C64.9428 81.9717 64.7404 82.5356 64.7404 83.1413C64.7404 83.7469 64.9428 84.3317 65.3291 84.7494L69.5421 89.5319C70.3332 90.43 71.6026 90.43 72.3937 89.5319L81.0957 79.6536C81.5004 79.2359 81.7028 78.6511 81.7028 78.0455Z" fill="#F7990D"/>
</svg>
