<svg width="30" height="33" viewBox="0 0 30 33" fill="none" xmlns="http://www.w3.org/2000/svg">
<path d="M17.5 0C11.9245 0 7.215 1.4234 5.6075 3.56125C2.3345 4.44235 0.442 5.92625 0.073 7.4305C0.031 7.51135 0 7.5999 0 7.7V7.975V14.3V14.575V14.85V20.9V21.175V21.45V28.05C0 28.1391 0.0215 28.2233 0.0585 28.298C0.649 30.9903 5.932 33 12.5 33C18.12 33 22.7895 31.526 24.393 29.4151C27.5725 28.5648 29.576 27.1733 29.938 25.5651C29.9775 25.487 30 25.3962 30 25.3V18.7V18.425V12.1V11.825V5.225C30 2.69225 25.619 0 17.5 0ZM23.9025 21.6414C23.8825 21.6959 23.858 21.7503 23.831 21.8048C23.7975 21.8724 23.76 21.9401 23.7155 22.0077C23.6825 22.0589 23.645 22.1095 23.606 22.1601C23.5505 22.2321 23.4915 22.3041 23.4245 22.3757C23.384 22.4191 23.3395 22.462 23.2945 22.5054C23.2125 22.5841 23.127 22.6622 23.0315 22.7398C22.9905 22.7733 22.9465 22.8058 22.903 22.8388C22.79 22.9246 22.672 23.0098 22.5425 23.0934C22.5085 23.1159 22.472 23.1374 22.4365 23.1594C22.2875 23.2518 22.132 23.3437 21.964 23.4328C21.9425 23.4443 21.92 23.4553 21.898 23.4663C21.7105 23.5637 21.5145 23.6594 21.305 23.7518C21.299 23.7545 21.293 23.7567 21.287 23.7595C20.1515 24.2583 18.699 24.6779 17.0065 24.9529C16.998 24.9541 16.9895 24.9552 16.981 24.9568C16.652 25.0102 16.3145 25.0574 15.968 25.0992C15.9115 25.1059 15.852 25.1103 15.795 25.1168C15.4925 25.1515 15.1865 25.1834 14.8715 25.2087C14.7275 25.2203 14.5765 25.2257 14.43 25.2357C14.193 25.2511 13.9585 25.2681 13.7155 25.2775C13.3185 25.2912 12.9135 25.3 12.5 25.3C12.0865 25.3 11.6815 25.2912 11.284 25.2758C11.041 25.2665 10.8065 25.2489 10.5695 25.234C10.423 25.2247 10.272 25.2186 10.128 25.2071C9.813 25.1818 9.507 25.1499 9.2045 25.1152C9.1475 25.1086 9.088 25.1042 9.0315 25.0976C8.685 25.0558 8.3475 25.008 8.0185 24.9552C8.01 24.9541 8.0015 24.953 7.993 24.9513C6.3005 24.6763 4.848 24.2567 3.7125 23.7578C3.7065 23.7556 3.7005 23.7528 3.6945 23.7501C3.485 23.6577 3.2885 23.562 3.1015 23.4646C3.08 23.4531 3.057 23.4421 3.0355 23.4311C2.8675 23.342 2.712 23.2507 2.563 23.1578C2.528 23.1357 2.491 23.1143 2.457 23.0918C2.3275 23.0082 2.2095 22.9229 2.0965 22.8371C2.0535 22.8041 2.009 22.7717 1.968 22.7381C1.8725 22.6605 1.787 22.5825 1.705 22.5038C1.6605 22.4609 1.6155 22.418 1.575 22.374C1.508 22.3025 1.449 22.231 1.3935 22.1584C1.3545 22.1078 1.317 22.0572 1.284 22.0061C1.24 21.9384 1.2025 21.8708 1.1685 21.8031C1.1415 21.7486 1.1175 21.6942 1.097 21.6398C1.0725 21.5732 1.053 21.5066 1.039 21.4401C1.0205 21.3526 1 21.2635 1 21.175C1 21.1129 1.0065 21.0507 1.0155 20.9891C1.028 20.906 1.021 20.823 1 20.7444V16.6611C1.014 16.6754 1.0315 16.6892 1.046 16.7035C1.155 16.8091 1.266 16.9142 1.391 17.0154C3.2745 18.5823 7.041 19.8 12.5 19.8C17.936 19.8 21.693 18.5922 23.5845 17.0346C23.7355 16.9136 23.8715 16.7888 23.9995 16.6617L24 16.6611V20.7444C23.979 20.823 23.972 20.906 23.9845 20.9891C23.9935 21.0507 24 21.1129 24 21.175C24 21.2635 23.9795 21.3527 23.9605 21.4418C23.946 21.5083 23.927 21.5749 23.9025 21.6414ZM1.3005 10.3384C1.4505 10.4682 1.6125 10.5963 1.788 10.7212C1.8245 10.747 1.8655 10.7723 1.9035 10.7982C2.0505 10.8988 2.206 10.9972 2.3695 11.0941C2.43 11.1298 2.4905 11.165 2.553 11.2002C2.7355 11.3025 2.927 11.4021 3.1285 11.4983C3.1615 11.5143 3.1915 11.5308 3.225 11.5462C3.4595 11.6556 3.7085 11.7601 3.9675 11.8613C4.039 11.8893 4.114 11.9158 4.1875 11.9433C4.3935 12.0197 4.6065 12.0928 4.827 12.1638C4.9065 12.1891 4.9845 12.2155 5.066 12.2397C5.3585 12.3288 5.6605 12.4135 5.9775 12.4916C6.021 12.5026 6.068 12.5114 6.112 12.5219C6.3915 12.589 6.6815 12.6511 6.9795 12.7094C7.0805 12.7292 7.183 12.7479 7.286 12.7666C7.5695 12.8177 7.8615 12.8645 8.161 12.9074C8.238 12.9184 8.3115 12.9311 8.3895 12.9415C8.7615 12.991 9.1465 13.0334 9.542 13.0697C9.6395 13.0785 9.741 13.0851 9.84 13.0928C10.1565 13.1181 10.48 13.139 10.811 13.1555C10.9315 13.1615 11.0515 13.1676 11.1745 13.1725C11.606 13.1885 12.045 13.2 12.5 13.2C12.955 13.2 13.394 13.1885 13.825 13.1725C13.9475 13.1676 14.0675 13.1615 14.1885 13.1555C14.5195 13.139 14.843 13.1181 15.1595 13.0928C15.2585 13.0845 15.3595 13.0785 15.4575 13.0697C15.853 13.0339 16.238 12.991 16.61 12.9415C16.688 12.9311 16.7615 12.9184 16.8385 12.9074C17.138 12.8645 17.4295 12.8177 17.7135 12.7666C17.8165 12.7479 17.919 12.7292 18.02 12.7094C18.318 12.6511 18.608 12.589 18.8875 12.5219C18.9315 12.5114 18.9785 12.5021 19.022 12.4916C19.339 12.4135 19.641 12.3282 19.9335 12.2397C20.015 12.215 20.093 12.1891 20.1725 12.1638C20.393 12.0928 20.606 12.0197 20.812 11.9433C20.8855 11.9158 20.9605 11.8893 21.032 11.8613C21.291 11.7601 21.5405 11.6556 21.7745 11.5462C21.808 11.5308 21.838 11.5143 21.871 11.4983C22.0725 11.4015 22.264 11.3025 22.4465 11.2002C22.509 11.165 22.57 11.1298 22.63 11.0941C22.7935 10.9978 22.949 10.8994 23.096 10.7982C23.134 10.7723 23.175 10.747 23.2115 10.7212C23.387 10.5963 23.549 10.4687 23.699 10.3384C23.7365 10.3054 23.77 10.2724 23.8065 10.2394C23.8715 10.18 23.94 10.1211 24 10.0611V14.1444C23.979 14.223 23.972 14.3061 23.9845 14.3891C23.9935 14.4507 24 14.5129 24 14.575C24 14.6636 23.9795 14.7527 23.9605 14.8418C23.9465 14.9083 23.927 14.9743 23.9025 15.0414C23.8825 15.0958 23.858 15.1503 23.831 15.2048C23.7975 15.2724 23.76 15.3401 23.7155 15.4077C23.6825 15.4588 23.645 15.5095 23.606 15.5601C23.5505 15.6321 23.4915 15.7042 23.4245 15.7757C23.384 15.8191 23.3395 15.862 23.2945 15.9055C23.2125 15.9841 23.127 16.0622 23.0315 16.1397C22.9905 16.1733 22.9465 16.2057 22.903 16.2388C22.79 16.3246 22.672 16.4098 22.5425 16.4934C22.5085 16.516 22.472 16.5374 22.4365 16.5594C22.2875 16.6518 22.132 16.7437 21.964 16.8328C21.9425 16.8443 21.92 16.8553 21.898 16.8663C21.7105 16.9636 21.5145 17.0594 21.305 17.1518C21.299 17.1545 21.293 17.1567 21.287 17.1595C20.1515 17.6583 18.699 18.0779 17.0065 18.353C16.998 18.354 16.9895 18.3552 16.981 18.3568C16.652 18.4102 16.3145 18.4574 15.968 18.4993C15.9115 18.5058 15.852 18.5103 15.795 18.5168C15.4925 18.5515 15.1865 18.5834 14.8715 18.6087C14.7275 18.6203 14.5765 18.6257 14.43 18.6357C14.193 18.6511 13.9585 18.6681 13.7155 18.6775C13.3185 18.6912 12.9135 18.7 12.5 18.7C12.0865 18.7 11.6815 18.6912 11.284 18.6758C11.041 18.6665 10.8065 18.6489 10.5695 18.634C10.423 18.6247 10.272 18.6186 10.128 18.6071C9.813 18.5818 9.507 18.5499 9.2045 18.5152C9.1475 18.5086 9.088 18.5042 9.0315 18.4976C8.685 18.4558 8.3475 18.408 8.0185 18.3552C8.01 18.3541 8.0015 18.353 7.993 18.3513C6.3005 18.0763 4.848 17.6567 3.7125 17.1578C3.7065 17.1556 3.7005 17.1528 3.6945 17.1501C3.485 17.0577 3.2885 16.962 3.1015 16.8647C3.08 16.8531 3.057 16.8421 3.0355 16.8311C2.8675 16.742 2.712 16.6507 2.563 16.5578C2.528 16.5357 2.491 16.5143 2.457 16.4918C2.3275 16.4082 2.2095 16.3229 2.0965 16.2371C2.0535 16.2041 2.009 16.1716 1.968 16.1381C1.8725 16.0606 1.787 15.9825 1.705 15.9038C1.6605 15.8609 1.6155 15.818 1.575 15.774C1.508 15.7025 1.449 15.631 1.3935 15.5584C1.3545 15.5078 1.317 15.4572 1.284 15.406C1.24 15.3384 1.2025 15.2708 1.1685 15.2031C1.1415 15.1487 1.1175 15.0942 1.097 15.0398C1.0725 14.9732 1.053 14.9067 1.039 14.8401C1.0205 14.7527 1 14.6636 1 14.575C1 14.5129 1.0065 14.4507 1.0155 14.3891C1.028 14.3061 1.021 14.223 1 14.1444V10.0611C1.06 10.1211 1.1285 10.18 1.1935 10.2394C1.2295 10.2724 1.263 10.3054 1.3005 10.3384ZM25 21.4995V21.45V21.175V20.9V16.0446C25.0215 16.038 25.0415 16.0309 25.063 16.0243C25.263 15.9627 25.458 15.8994 25.647 15.834C25.649 15.8334 25.6515 15.8323 25.6535 15.8317C27.134 15.3169 28.2635 14.6773 29 13.9469V18.425C29 18.4888 28.9925 18.5526 28.9825 18.6169C28.9745 18.6698 28.961 18.7226 28.9465 18.7754C28.942 18.7908 28.939 18.8062 28.934 18.8221C28.916 18.8799 28.8935 18.9376 28.8675 18.9953C28.8645 19.0025 28.861 19.0097 28.858 19.0168C28.444 19.9051 27.1255 20.7779 25.223 21.4253C25.1495 21.45 25.0755 21.4753 25 21.4995ZM29 7.34085V11.825C29 11.8888 28.9925 11.9526 28.9825 12.017C28.9745 12.0698 28.961 12.1226 28.9465 12.1754C28.942 12.1908 28.939 12.2062 28.934 12.2221C28.916 12.2799 28.8935 12.3376 28.8675 12.3954C28.8645 12.4025 28.861 12.4097 28.858 12.4168C28.444 13.3051 27.1255 14.1779 25.223 14.8253C25.1495 14.85 25.0755 14.8753 25 14.8995V14.85V14.575V14.3V9.4446C25.042 9.43195 25.0805 9.41765 25.122 9.405C25.237 9.36925 25.349 9.33185 25.4605 9.295C25.555 9.26365 25.6495 9.23175 25.741 9.1993C25.855 9.1586 25.965 9.1168 26.0745 9.07445C26.1575 9.04255 26.2415 9.0112 26.322 8.97875C26.4375 8.932 26.548 8.88305 26.6585 8.83465C26.727 8.8044 26.798 8.77525 26.8645 8.74445C26.9925 8.68505 27.1145 8.624 27.2355 8.56185C27.279 8.53985 27.325 8.5184 27.367 8.4964C27.529 8.4106 27.6845 8.3226 27.8325 8.23295C27.848 8.2236 27.861 8.2137 27.8765 8.20435C28.007 8.12405 28.133 8.0421 28.252 7.9585C28.294 7.9288 28.3315 7.89855 28.372 7.86885C28.46 7.8045 28.547 7.7396 28.628 7.67305C28.6725 7.63675 28.7125 7.59935 28.7545 7.5625C28.825 7.5009 28.8955 7.4393 28.96 7.3766C28.973 7.36395 28.988 7.35295 29 7.34085ZM17.5 1.1C24.2775 1.1 29 3.2736 29 5.225C29 5.29815 28.993 5.3713 28.98 5.44445C28.976 5.46865 28.9675 5.4923 28.962 5.5165C28.9505 5.566 28.9395 5.61495 28.9225 5.66445C28.9125 5.69305 28.899 5.72165 28.8875 5.75025C28.869 5.7948 28.851 5.83935 28.828 5.8839C28.8125 5.91415 28.794 5.9444 28.7765 5.97465C28.7515 6.01755 28.7265 6.06045 28.698 6.1028C28.677 6.1336 28.6535 6.1644 28.6305 6.19465C28.599 6.23645 28.567 6.27825 28.532 6.3195C28.506 6.3503 28.478 6.3811 28.45 6.4119C28.4125 6.4526 28.3735 6.49385 28.332 6.53455C28.301 6.5648 28.269 6.5956 28.236 6.62585C28.192 6.666 28.146 6.70615 28.0985 6.7463C28.063 6.776 28.027 6.80625 27.9895 6.83595C27.939 6.8761 27.8855 6.9157 27.8315 6.9553C27.792 6.98445 27.7525 7.01305 27.711 7.0422C27.653 7.08235 27.5925 7.12195 27.531 7.161C27.4885 7.1885 27.4465 7.216 27.402 7.24295C27.336 7.2831 27.266 7.32325 27.196 7.3634C27.1515 7.3887 27.1085 7.41455 27.0625 7.4393C26.986 7.4811 26.905 7.5218 26.8245 7.56305C26.7805 7.58505 26.739 7.6076 26.694 7.6296C26.5875 7.6813 26.477 7.73245 26.3645 7.7825C26.342 7.7924 26.3215 7.80285 26.299 7.81275C26.162 7.8727 26.02 7.93155 25.874 7.9893C25.8335 8.00525 25.79 8.02065 25.749 8.03605C25.642 8.07675 25.535 8.11745 25.4235 8.15705C25.3655 8.17795 25.3045 8.1972 25.245 8.21755C25.1645 8.24505 25.084 8.272 25.0015 8.2984V7.975V7.7C25.0015 7.63785 24.988 7.579 24.969 7.5229C24.962 7.5009 24.9555 7.48 24.946 7.45965C24.945 7.45745 24.9445 7.45415 24.943 7.45195C24.801 6.8046 24.382 6.1985 23.745 5.6485C23.7415 5.6452 23.7385 5.6419 23.7345 5.63915C23.6435 5.5605 23.542 5.48515 23.442 5.40925C21.6685 4.0282 18.4045 2.9458 13.7745 2.77695C13.355 2.7599 12.9305 2.75 12.5 2.75C12.073 2.75 11.6485 2.75935 11.2275 2.7764C9.9785 2.82205 8.834 2.93645 7.7855 3.1031C9.7225 1.9866 13.1365 1.1 17.5 1.1ZM6.7465 4.43355C6.8725 4.40605 7.0025 4.38185 7.131 4.356C7.297 4.32245 7.464 4.29 7.6355 4.25975C7.785 4.23335 7.936 4.2086 8.088 4.1844C8.2565 4.158 8.4285 4.13325 8.602 4.1096C8.749 4.08925 8.8955 4.06835 9.0445 4.05075C9.344 4.015 9.649 3.98365 9.961 3.95725C10.0795 3.9468 10.2 3.9402 10.3195 3.9314C10.5615 3.9138 10.8055 3.8984 11.0545 3.88685C11.172 3.88135 11.2895 3.87585 11.408 3.87145C11.767 3.85935 12.129 3.85 12.5 3.85C12.9135 3.85 13.3185 3.8588 13.7165 3.8742C13.9565 3.88355 14.188 3.9006 14.422 3.91545C14.572 3.9248 14.7255 3.9314 14.873 3.94295C15.1835 3.9677 15.485 3.9996 15.7835 4.03315C15.845 4.03975 15.9095 4.0447 15.9705 4.0524C16.309 4.0931 16.6385 4.13985 16.9605 4.19155C16.977 4.1943 16.9945 4.1965 17.0105 4.1987C18.695 4.4726 20.141 4.8895 21.2735 5.38505C21.286 5.39055 21.2995 5.39605 21.312 5.40155C21.515 5.4912 21.705 5.58415 21.8865 5.6782C21.9145 5.6925 21.9435 5.7068 21.971 5.7211C22.1335 5.80745 22.2835 5.896 22.428 5.9851C22.468 6.00985 22.51 6.0346 22.5485 6.0599C22.673 6.14075 22.787 6.2227 22.8965 6.30575C22.944 6.3415 22.992 6.3778 23.0365 6.4141C23.1285 6.4889 23.211 6.56425 23.29 6.64015C23.3375 6.6858 23.385 6.73145 23.428 6.77765C23.4925 6.84695 23.55 6.91625 23.6035 6.9861C23.644 7.0389 23.6835 7.0917 23.7175 7.14505C23.7605 7.2105 23.797 7.2765 23.83 7.3425C23.858 7.3986 23.8825 7.45415 23.903 7.5097C23.927 7.57515 23.946 7.64115 23.96 7.7066C23.9795 7.7968 24 7.8859 24 7.975C24 9.9264 19.2775 12.1 12.5 12.1C5.7225 12.1 1 9.9264 1 7.975C1 6.644 3.1995 5.21125 6.7465 4.43355ZM12.5 31.9C5.982 31.9 1.2995 29.8634 1.016 27.9609C1.012 27.9362 1.007 27.912 1 27.8889V23.2612C1.014 23.2754 1.0315 23.2892 1.046 23.3035C1.155 23.4091 1.266 23.5142 1.391 23.6154C3.2745 25.1823 7.041 26.4 12.5 26.4C17.936 26.4 21.693 25.1922 23.5845 23.6346C23.7355 23.5136 23.8715 23.3888 23.9995 23.2617L24 23.2612V27.8867C23.993 27.9109 23.988 27.9356 23.984 27.9609C23.9675 28.0731 23.9325 28.1859 23.886 28.298C23.868 28.3415 23.84 28.385 23.8175 28.4284C22.913 30.1824 18.4855 31.9 12.5 31.9ZM28.984 25.2109C28.8255 26.2785 27.327 27.351 24.998 28.1012C24.9995 28.0847 25 28.0671 25 28.05V22.6446C25.0215 22.638 25.0415 22.6308 25.063 22.6243C25.263 22.5626 25.458 22.4994 25.647 22.434C25.649 22.4334 25.6515 22.4323 25.6535 22.4318C27.134 21.917 28.2635 21.2773 29 20.5469V25.1372C28.993 25.1609 28.988 25.1856 28.984 25.2109Z" fill="#D90416"/>
</svg>
