<svg width="43" height="41" viewBox="0 0 43 41" fill="none" xmlns="http://www.w3.org/2000/svg">
<g clip-path="url(#clip0_3_874)">
<path d="M42.9878 31.4872L42.5171 24.7354C42.4614 23.9359 41.7372 23.3308 40.898 23.384C40.0595 23.4371 39.425 24.1283 39.4807 24.9278L39.6888 27.9114L34.904 23.3492C37.9361 19.5586 37.6371 14.1048 34.0062 10.6427C30.6185 7.41235 25.4121 6.94805 21.5009 9.24846C17.5895 6.94797 12.3832 7.41235 8.99542 10.6427C5.36444 14.1048 5.06562 19.5584 8.09771 23.3492L5.6331 25.6991L3.24005 23.4177C2.64595 22.8512 1.68248 22.8512 1.08829 23.4177C0.494101 23.9843 0.494101 24.9029 1.08829 25.4694L3.48117 27.751L0.445642 30.6453C-0.148547 31.2118 -0.148547 32.1304 0.445642 32.6969C0.742779 32.9803 1.13213 33.1219 1.52148 33.1219C1.91083 33.1219 2.30035 32.9803 2.59732 32.6969L5.63268 29.8026L7.91698 31.9806C8.21411 32.264 8.60346 32.4056 8.99282 32.4056C9.38217 32.4056 9.77169 32.264 10.0687 31.9806C10.6628 31.4141 10.6628 30.4955 10.0687 29.929L7.78436 27.7509L10.2835 25.368C12.0383 26.5613 14.1049 27.1585 16.1719 27.1585C18.0229 27.1585 19.8737 26.6796 21.5006 25.7227C23.1275 26.6795 24.9783 27.1585 26.8293 27.1585C28.8962 27.1585 30.9628 26.5613 32.7177 25.368L37.6157 30.0382L34.3646 29.8321C33.5268 29.7788 32.8011 30.384 32.7454 31.1835C32.6897 31.983 33.3243 32.6742 34.1627 32.7273L41.3616 33.1836C41.396 33.1858 41.4301 33.1869 41.4641 33.1869C42.1251 33.1869 42.6979 32.7791 42.9028 32.2006C42.9471 32.0871 42.9763 31.9671 42.9895 31.843C42.9931 31.8148 42.9955 31.7867 42.9972 31.7584C42.9974 31.7529 42.9978 31.7474 42.9981 31.7418C43.0025 31.6568 42.9992 31.5717 42.9878 31.4872ZM19.0363 23.6849C16.4317 24.7754 13.2767 24.3073 11.1471 22.2769C8.37637 19.6351 8.37637 15.3364 11.1471 12.6944C12.5325 11.3734 14.3523 10.713 16.1721 10.713C17.1494 10.713 18.1261 10.9054 19.0363 11.2864C15.9018 14.8635 15.9018 20.1079 19.0363 23.6849Z" fill="#489347"/>
</g>
<defs>
<clipPath id="clip0_3_874">
<rect width="43" height="41" fill="white"/>
</clipPath>
</defs>
</svg>
