<svg width="218" height="87" viewBox="0 0 218 87" fill="none" xmlns="http://www.w3.org/2000/svg">
<g filter="url(#filter0_d_3_916)">
<path d="M31.375 59.3125L27.625 55.1875C26.4167 56.6458 25.0417 57.8125 23.5 58.6875C21.9583 59.5208 20.25 59.9375 18.375 59.9375C16.2083 59.9375 14.25 59.4583 12.5 58.5C10.75 57.5 9.27083 56.1042 8.0625 54.3125C6.85417 52.5208 5.91667 50.3542 5.25 47.8125C4.58333 45.2708 4.25 42.4375 4.25 39.3125C4.25 36.7708 4.54167 34.2708 5.125 31.8125C5.75 29.3125 6.66667 27.1042 7.875 25.1875C9.08333 23.2292 10.5833 21.6667 12.375 20.5C14.1667 19.2917 16.25 18.6875 18.625 18.6875C21.3333 18.6875 23.5833 19.375 25.375 20.75C27.2083 22.0833 28.6667 23.7917 29.75 25.875C30.8333 27.9167 31.6042 30.1667 32.0625 32.625C32.5208 35.0833 32.75 37.3958 32.75 39.5625C32.75 41.6875 32.5 43.7708 32 45.8125C31.5417 47.8542 30.875 49.75 30 51.5L34.25 56.1875L31.375 59.3125ZM24.875 52.0625L17.75 44.1875L20.875 41.4375L27.0625 48.25C27.5625 46.875 27.9167 45.4375 28.125 43.9375C28.375 42.3958 28.5 40.9375 28.5 39.5625C28.5 37.2708 28.2917 35.125 27.875 33.125C27.4583 31.0833 26.8333 29.3125 26 27.8125C25.1667 26.3125 24.125 25.125 22.875 24.25C21.625 23.375 20.1875 22.9375 18.5625 22.9375C16.9792 22.9375 15.5417 23.375 14.25 24.25C13 25.0833 11.9375 26.2292 11.0625 27.6875C10.1875 29.1042 9.5 30.75 9 32.625C8.54167 34.4583 8.3125 36.375 8.3125 38.375C8.3125 40.4167 8.45833 42.4583 8.75 44.5C9.04167 46.5417 9.54167 48.375 10.25 50C11 51.625 12 52.9375 13.25 53.9375C14.5 54.9375 16.0833 55.4375 18 55.4375C19.4583 55.4375 20.75 55.1458 21.875 54.5625C23 53.9375 24 53.1042 24.875 52.0625ZM78.25 37.0625C75.9583 37.0625 74.1458 37.7708 72.8125 39.1875C71.5208 40.6042 70.875 42.875 70.875 46C70.875 47.2083 71.0417 48.4167 71.375 49.625C71.7083 50.7917 72.1875 51.8542 72.8125 52.8125C73.4375 53.7708 74.1875 54.5625 75.0625 55.1875C75.9375 55.7708 76.9167 56.0625 78 56.0625C79.125 56.0625 80.1458 55.7917 81.0625 55.25C81.9792 54.7083 82.75 54.0208 83.375 53.1875C84 52.3125 84.4792 51.3542 84.8125 50.3125C85.1875 49.2292 85.375 48.1875 85.375 47.1875C85.375 43.5208 84.7083 40.9167 83.375 39.375C82.0833 37.8333 80.375 37.0625 78.25 37.0625ZM77.875 32.8125C79.9583 32.8125 81.7292 33.1875 83.1875 33.9375C84.6458 34.6875 85.8333 35.7292 86.75 37.0625C87.6667 38.3542 88.3333 39.875 88.75 41.625C89.1667 43.3333 89.375 45.1875 89.375 47.1875C89.2917 49.4375 88.9167 51.3958 88.25 53.0625C87.625 54.6875 86.7917 56.0417 85.75 57.125C84.7083 58.2083 83.5208 59 82.1875 59.5C80.8958 60.0417 79.5417 60.3125 78.125 60.3125C76.25 60.3125 74.6042 59.9375 73.1875 59.1875C71.8125 58.4375 70.6458 57.4375 69.6875 56.1875C68.7708 54.8958 68.0625 53.4375 67.5625 51.8125C67.1042 50.1458 66.875 48.3958 66.875 46.5625C66.875 44.6042 67.125 42.7917 67.625 41.125C68.1667 39.4167 68.8958 37.9583 69.8125 36.75C70.7708 35.5 71.9167 34.5417 73.25 33.875C74.625 33.1667 76.1667 32.8125 77.875 32.8125ZM110.125 35.1875L109.25 38.9375C108.917 38.7708 108.458 38.6042 107.875 38.4375C107.333 38.2292 106.708 38.0417 106 37.875C105.333 37.7083 104.604 37.5833 103.812 37.5C103.062 37.375 102.354 37.3125 101.688 37.3125C100.438 37.3125 99.3542 37.5 98.4375 37.875C97.5625 38.25 97.125 38.9167 97.125 39.875C97.125 40.5833 97.5 41.1875 98.25 41.6875C99 42.1875 99.875 42.625 100.875 43C101.917 43.3333 102.938 43.6042 103.938 43.8125C104.979 44.0208 105.792 44.1875 106.375 44.3125C107.625 44.6875 108.625 45.1875 109.375 45.8125C110.167 46.3958 110.771 47.0417 111.188 47.75C111.646 48.4167 111.958 49.125 112.125 49.875C112.292 50.625 112.375 51.3542 112.375 52.0625C112.375 53.5625 112.021 54.8333 111.312 55.875C110.646 56.875 109.771 57.7083 108.688 58.375C107.646 59 106.458 59.4583 105.125 59.75C103.833 60.0417 102.542 60.1875 101.25 60.1875C99.25 60.1875 97.3333 59.9167 95.5 59.375C93.7083 58.8333 92.2917 58.1042 91.25 57.1875L92.75 52.9375C93.25 53.3542 93.8333 53.75 94.5 54.125C95.2083 54.4583 95.9792 54.7708 96.8125 55.0625C97.6458 55.3125 98.5208 55.5208 99.4375 55.6875C100.354 55.8125 101.25 55.875 102.125 55.875C103.625 55.875 104.958 55.5833 106.125 55C107.292 54.4167 108 53.3958 108.25 51.9375C108.25 51.6875 108.208 51.375 108.125 51C108.083 50.5833 107.938 50.1875 107.688 49.8125C107.479 49.4375 107.125 49.0833 106.625 48.75C106.167 48.4167 105.5 48.1875 104.625 48.0625C102.917 47.8125 101.333 47.4792 99.875 47.0625C98.4583 46.6458 97.2292 46.125 96.1875 45.5C95.1458 44.875 94.3125 44.125 93.6875 43.25C93.1042 42.3333 92.8125 41.2708 92.8125 40.0625C92.8125 37.7292 93.5833 36.0417 95.125 35C96.6667 33.9583 98.9375 33.4375 101.938 33.4375C103.521 33.4375 105.042 33.6042 106.5 33.9375C108 34.2708 109.208 34.6875 110.125 35.1875ZM119.75 45.375L135.125 31.5625L137.875 35.1875L129.625 43.0625L141.125 56.6875L138.625 60.1875L126.375 46.125L121.25 51V59.4375L117.5 59.9375V18.5625L119.75 17.8125V45.375Z" fill="white"/>
<path d="M51.5 63.1875L46.125 62.8125V41.3125L36.5 18.8125L40.25 16.6875L49.625 36.6875L60.75 18.8125L64.125 20.6875L51.5 41.4375V63.1875ZM153.875 55.1875L143 36.3125L146.375 33.6875L155.562 50.25L161.625 32.3125L165.125 34.1875L152.875 70.1875L149.5 68.0625L153.875 55.1875Z" fill="#F26800"/>
<path d="M31.375 59.3125L30.6351 59.9852L31.3706 60.7943L32.1109 59.9896L31.375 59.3125ZM27.625 55.1875L28.3649 54.5148L27.59 53.6624L26.855 54.5495L27.625 55.1875ZM23.5 58.6875L23.9755 59.5672L23.9846 59.5623L23.9936 59.5572L23.5 58.6875ZM12.5 58.5L12.0039 59.3682L12.0117 59.3727L12.0197 59.3771L12.5 58.5ZM8.0625 54.3125L7.23343 54.8716L8.0625 54.3125ZM5.125 31.8125L4.15479 31.5699L4.15202 31.5816L5.125 31.8125ZM7.875 25.1875L8.72096 25.7208L8.72604 25.7126L7.875 25.1875ZM12.375 20.5L12.9207 21.338L12.9274 21.3336L12.9341 21.3291L12.375 20.5ZM25.375 20.75L24.7662 21.5433L24.7764 21.5512L24.7868 21.5587L25.375 20.75ZM29.75 25.875L28.8628 26.3364L28.8667 26.3437L29.75 25.875ZM32 45.8125L31.0287 45.5746L31.0264 45.584L31.0243 45.5935L32 45.8125ZM30 51.5L29.1056 51.0528L28.7996 51.6648L29.2592 52.1717L30 51.5ZM34.25 56.1875L34.9859 56.8646L35.6043 56.1924L34.9908 55.5158L34.25 56.1875ZM24.875 52.0625L25.6407 52.7057L26.2015 52.0381L25.6165 51.3916L24.875 52.0625ZM17.75 44.1875L17.0894 43.4368L16.3282 44.1066L17.0085 44.8584L17.75 44.1875ZM20.875 41.4375L21.6152 40.7652L20.9534 40.0365L20.2144 40.6868L20.875 41.4375ZM27.0625 48.25L26.3223 48.9223L27.4361 50.1487L28.0023 48.5917L27.0625 48.25ZM28.125 43.9375L27.1379 43.7774L27.1361 43.7887L27.1345 43.7999L28.125 43.9375ZM27.875 33.125L26.8952 33.325L26.896 33.329L27.875 33.125ZM14.25 24.25L14.8047 25.0821L14.8108 25.0779L14.25 24.25ZM11.0625 27.6875L11.9134 28.213L11.92 28.202L11.0625 27.6875ZM9 32.625L8.03376 32.3673L8.03175 32.3749L8.02986 32.3825L9 32.625ZM10.25 50L9.3333 50.3996L9.33757 50.4094L9.34204 50.4191L10.25 50ZM21.875 54.5625L22.3353 55.4503L22.3481 55.4436L22.3606 55.4367L21.875 54.5625ZM32.1149 58.6398L28.3649 54.5148L26.8851 55.8602L30.6351 59.9852L32.1149 58.6398ZM26.855 54.5495C25.7187 55.9209 24.4356 57.0066 23.0064 57.8178L23.9936 59.5572C25.6477 58.6184 27.1147 57.3708 28.395 55.8255L26.855 54.5495ZM23.0245 57.8078C21.639 58.5567 20.0959 58.9375 18.375 58.9375V60.9375C20.4041 60.9375 22.2776 60.485 23.9755 59.5672L23.0245 57.8078ZM18.375 58.9375C16.3614 58.9375 14.5706 58.4938 12.9803 57.6229L12.0197 59.3771C13.9294 60.4229 16.0553 60.9375 18.375 60.9375V58.9375ZM12.9961 57.6318C11.3889 56.7133 10.0204 55.4272 8.89157 53.7534L7.23343 54.8716C8.52123 56.7811 10.1111 58.2867 12.0039 59.3682L12.9961 57.6318ZM8.89157 53.7534C7.75808 52.0727 6.86135 50.0143 6.21728 47.5588L4.28272 48.0662C4.97198 50.694 5.95025 52.969 7.23343 54.8716L8.89157 53.7534ZM6.21728 47.5588C5.57598 45.1138 5.25 42.3675 5.25 39.3125H3.25C3.25 42.5075 3.59069 45.4279 4.28272 48.0662L6.21728 47.5588ZM5.25 39.3125C5.25 36.8481 5.53271 34.4256 6.09798 32.0434L4.15202 31.5816C3.55063 34.1161 3.25 36.6936 3.25 39.3125H5.25ZM6.09514 32.055C6.6979 29.644 7.57633 27.5364 8.72093 25.7208L7.02907 24.6542C5.75701 26.672 4.8021 28.981 4.15486 31.57L6.09514 32.055ZM8.72604 25.7126C9.86292 23.8701 11.2619 22.4181 12.9207 21.338L11.8293 19.662C9.90479 20.9152 8.30375 22.5883 7.02396 24.6624L8.72604 25.7126ZM12.9341 21.3291C14.5443 20.2431 16.4287 19.6875 18.625 19.6875V17.6875C16.0713 17.6875 13.789 18.3402 11.8159 19.6709L12.9341 21.3291ZM18.625 19.6875C21.1584 19.6875 23.1819 20.3275 24.7662 21.5433L25.9838 19.9567C23.9847 18.4225 21.5083 17.6875 18.625 17.6875V19.6875ZM24.7868 21.5587C26.4904 22.7977 27.8482 24.3853 28.8628 26.3364L30.6372 25.4136C29.4851 23.198 27.9263 21.369 25.9632 19.9413L24.7868 21.5587ZM28.8667 26.3437C29.8987 28.2888 30.6382 30.4415 31.0794 32.8083L33.0456 32.4417C32.5702 29.8919 31.7679 27.5445 30.6333 25.4063L28.8667 26.3437ZM31.0794 32.8083C31.5282 35.2152 31.75 37.4659 31.75 39.5625H33.75C33.75 37.3258 33.5135 34.9515 33.0456 32.4417L31.0794 32.8083ZM31.75 39.5625C31.75 41.6082 31.5094 43.6117 31.0287 45.5746L32.9713 46.0504C33.4906 43.93 33.75 41.7668 33.75 39.5625H31.75ZM31.0243 45.5935C30.5825 47.5615 29.9419 49.3801 29.1056 51.0528L30.8944 51.9472C31.8081 50.1199 32.5009 48.1468 32.9757 46.0315L31.0243 45.5935ZM29.2592 52.1717L33.5092 56.8592L34.9908 55.5158L30.7408 50.8283L29.2592 52.1717ZM33.5141 55.5104L30.6391 58.6354L32.1109 59.9896L34.9859 56.8646L33.5141 55.5104ZM25.6165 51.3916L18.4915 43.5166L17.0085 44.8584L24.1335 52.7334L25.6165 51.3916ZM18.4106 44.9382L21.5356 42.1882L20.2144 40.6868L17.0894 43.4368L18.4106 44.9382ZM20.1348 42.1098L26.3223 48.9223L27.8027 47.5777L21.6152 40.7652L20.1348 42.1098ZM28.0023 48.5917C28.5272 47.1484 28.8978 45.6423 29.1155 44.0751L27.1345 43.7999C26.9355 45.2327 26.5978 46.6016 26.1227 47.9083L28.0023 48.5917ZM29.1121 44.0976C29.3696 42.51 29.5 40.9978 29.5 39.5625H27.5C27.5 40.8772 27.3804 42.2817 27.1379 43.7774L29.1121 44.0976ZM29.5 39.5625C29.5 37.2105 29.2862 34.9957 28.854 32.921L26.896 33.329C27.2971 35.2543 27.5 37.3312 27.5 39.5625H29.5ZM28.8548 32.925C28.4219 30.804 27.7664 28.9329 26.8742 27.3269L25.1258 28.2981C25.9003 29.6921 26.4947 31.3627 26.8952 33.325L28.8548 32.925ZM26.8742 27.3269C25.9764 25.7109 24.8374 24.403 23.4485 23.4308L22.3015 25.0692C23.4126 25.847 24.3569 26.9141 25.1258 28.2981L26.8742 27.3269ZM23.4485 23.4308C22.0192 22.4303 20.3786 21.9375 18.5625 21.9375V23.9375C19.9964 23.9375 21.2308 24.3197 22.3015 25.0692L23.4485 23.4308ZM18.5625 21.9375C16.7824 21.9375 15.149 22.4332 13.6892 23.4221L14.8108 25.0779C15.9344 24.3168 17.1759 23.9375 18.5625 23.9375V21.9375ZM13.6953 23.4179C12.3068 24.3436 11.1461 25.6045 10.205 27.173L11.92 28.202C12.7289 26.8538 13.6932 25.823 14.8047 25.0821L13.6953 23.4179ZM10.2117 27.162C9.27767 28.6742 8.55489 30.4131 8.03376 32.3673L9.96624 32.8827C10.4451 31.0869 11.0973 29.5341 11.9133 28.213L10.2117 27.162ZM8.02986 32.3825C7.55057 34.2996 7.3125 36.298 7.3125 38.375H9.3125C9.3125 36.452 9.53276 34.6171 9.97014 32.8675L8.02986 32.3825ZM7.3125 38.375C7.3125 40.4645 7.46176 42.5534 7.76005 44.6414L9.73995 44.3586C9.45491 42.3633 9.3125 40.3689 9.3125 38.375H7.3125ZM7.76005 44.6414C8.06241 46.7579 8.58377 48.6801 9.3333 50.3996L11.1667 49.6004C10.4996 48.0699 10.0209 46.3254 9.73995 44.3586L7.76005 44.6414ZM9.34204 50.4191C10.1493 52.1682 11.2404 53.6104 12.6253 54.7184L13.8747 53.1566C12.7596 52.2646 11.8507 51.0818 11.158 49.5809L9.34204 50.4191ZM12.6253 54.7184C14.0858 55.8868 15.9027 56.4375 18 56.4375V54.4375C16.2639 54.4375 14.9142 53.9882 13.8747 53.1566L12.6253 54.7184ZM18 56.4375C19.5943 56.4375 21.048 56.1178 22.3353 55.4503L21.4147 53.6747C20.452 54.1739 19.3224 54.4375 18 54.4375V56.4375ZM22.3606 55.4367C23.5983 54.7491 24.6918 53.8354 25.6407 52.7057L24.1093 51.4193C23.3082 52.3729 22.4017 53.1259 21.3894 53.6883L22.3606 55.4367ZM51.5 63.1875L51.4304 64.1851L52.5 64.2597V63.1875H51.5ZM46.125 62.8125H45.125V63.7452L46.0554 63.8101L46.125 62.8125ZM46.125 41.3125H47.125V41.1076L47.0444 40.9192L46.125 41.3125ZM36.5 18.8125L36.007 17.9425L35.2288 18.3834L35.5806 19.2058L36.5 18.8125ZM40.25 16.6875L41.1555 16.2631L40.6969 15.2848L39.757 15.8175L40.25 16.6875ZM49.625 36.6875L48.7195 37.1119L49.5011 38.7792L50.474 37.2159L49.625 36.6875ZM60.75 18.8125L61.2356 17.9383L60.4038 17.4762L59.901 18.2841L60.75 18.8125ZM64.125 20.6875L64.9793 21.2073L65.52 20.3186L64.6106 19.8133L64.125 20.6875ZM51.5 41.4375L50.6457 40.9177L50.5 41.1572V41.4375H51.5ZM51.5696 62.1899L46.1946 61.8149L46.0554 63.8101L51.4304 64.1851L51.5696 62.1899ZM47.125 62.8125V41.3125H45.125V62.8125H47.125ZM47.0444 40.9192L37.4194 18.4192L35.5806 19.2058L45.2056 41.7058L47.0444 40.9192ZM36.993 19.6825L40.743 17.5575L39.757 15.8175L36.007 17.9425L36.993 19.6825ZM39.3445 17.1119L48.7195 37.1119L50.5305 36.2631L41.1555 16.2631L39.3445 17.1119ZM50.474 37.2159L61.599 19.3409L59.901 18.2841L48.776 36.1591L50.474 37.2159ZM60.2644 19.6867L63.6394 21.5617L64.6106 19.8133L61.2356 17.9383L60.2644 19.6867ZM63.2707 20.1677L50.6457 40.9177L52.3543 41.9573L64.9793 21.2073L63.2707 20.1677ZM50.5 41.4375V63.1875H52.5V41.4375H50.5ZM72.8125 39.1875L72.0843 38.5021L72.0789 38.5079L72.0735 38.5137L72.8125 39.1875ZM71.375 49.625L70.411 49.8909L70.4135 49.8997L71.375 49.625ZM75.0625 55.1875L74.4813 56.0012L74.4944 56.0106L74.5078 56.0196L75.0625 55.1875ZM81.0625 55.25L80.5538 54.3891L81.0625 55.25ZM83.375 53.1875L84.175 53.7875L84.182 53.7782L84.1887 53.7687L83.375 53.1875ZM84.8125 50.3125L83.8675 49.9854L83.8637 49.9965L83.8601 50.0077L84.8125 50.3125ZM83.375 39.375L82.6085 40.0172L82.6135 40.0232L82.6186 40.0292L83.375 39.375ZM86.75 37.0625L85.926 37.629L85.9302 37.6352L85.9345 37.6412L86.75 37.0625ZM88.75 41.625L87.7772 41.8566L87.7785 41.862L88.75 41.625ZM89.375 47.1875L90.3743 47.2245L90.375 47.206V47.1875H89.375ZM88.25 53.0625L87.3214 52.6911L87.3167 52.7035L88.25 53.0625ZM82.1875 59.5L81.8364 58.5637L81.8184 58.5704L81.8008 58.5778L82.1875 59.5ZM73.1875 59.1875L72.7086 60.0655L72.7196 60.0713L73.1875 59.1875ZM69.6875 56.1875L68.872 56.7662L68.8827 56.7813L68.8939 56.7959L69.6875 56.1875ZM67.5625 51.8125L66.5983 52.0777L66.6023 52.0922L66.6067 52.1066L67.5625 51.8125ZM67.625 41.125L66.6718 40.8228L66.6694 40.8302L66.6672 40.8377L67.625 41.125ZM69.8125 36.75L69.0189 36.1416L69.0158 36.1456L69.8125 36.75ZM73.25 33.875L73.6972 34.7695L73.708 34.764L73.25 33.875ZM78.25 36.0625C75.7359 36.0625 73.6403 36.8489 72.0843 38.5021L73.5407 39.8729C74.6514 38.6928 76.1807 38.0625 78.25 38.0625V36.0625ZM72.0735 38.5137C70.5355 40.2006 69.875 42.7737 69.875 46H71.875C71.875 42.9763 72.5061 41.0077 73.5515 39.8613L72.0735 38.5137ZM69.875 46C69.875 47.3015 70.0547 48.5992 70.411 49.8909L72.339 49.3591C72.0287 48.2341 71.875 47.1152 71.875 46H69.875ZM70.4135 49.8997C70.7726 51.1568 71.292 52.3117 71.9749 53.3588L73.6501 52.2662C73.083 51.3966 72.644 50.4266 72.3365 49.3503L70.4135 49.8997ZM71.9749 53.3588C72.6635 54.4147 73.4985 55.2993 74.4813 56.0012L75.6437 54.3738C74.8765 53.8257 74.2115 53.127 73.6501 52.2662L71.9749 53.3588ZM74.5078 56.0196C75.5522 56.7158 76.7256 57.0625 78 57.0625V55.0625C77.1078 55.0625 76.3228 54.8258 75.6172 54.3554L74.5078 56.0196ZM78 57.0625C79.2934 57.0625 80.4917 56.7489 81.5712 56.1109L80.5538 54.3891C79.8 54.8345 78.9566 55.0625 78 55.0625V57.0625ZM81.5712 56.1109C82.5986 55.5038 83.4693 54.7285 84.175 53.7875L82.575 52.5875C82.0307 53.3132 81.3597 53.9128 80.5538 54.3891L81.5712 56.1109ZM84.1887 53.7687C84.8751 52.8079 85.4005 51.756 85.7649 50.6173L83.8601 50.0077C83.5578 50.9523 83.1249 51.8171 82.5613 52.6063L84.1887 53.7687ZM85.7575 50.6396C86.1637 49.4662 86.375 48.3138 86.375 47.1875H84.375C84.375 48.0612 84.2113 48.9921 83.8675 49.9854L85.7575 50.6396ZM86.375 47.1875C86.375 43.4524 85.7062 40.5418 84.1314 38.7208L82.6186 40.0292C83.7104 41.2915 84.375 43.5893 84.375 47.1875H86.375ZM84.1415 38.7328C82.6479 36.9501 80.6517 36.0625 78.25 36.0625V38.0625C80.0983 38.0625 81.5188 38.7166 82.6085 40.0172L84.1415 38.7328ZM77.875 33.8125C79.8411 33.8125 81.4464 34.1665 82.7301 34.8268L83.6449 33.0482C82.012 32.2085 80.0755 31.8125 77.875 31.8125V33.8125ZM82.7301 34.8268C84.0435 35.5022 85.1043 36.4338 85.926 37.629L87.574 36.496C86.5624 35.0245 85.2481 33.8728 83.6449 33.0482L82.7301 34.8268ZM85.9345 37.6412C86.7676 38.8151 87.3862 40.2145 87.7772 41.8566L89.7228 41.3934C89.2804 39.5355 88.5658 37.8932 87.5655 36.4838L85.9345 37.6412ZM87.7785 41.862C88.1739 43.483 88.375 45.2566 88.375 47.1875H90.375C90.375 45.1184 90.1595 43.1837 89.7215 41.388L87.7785 41.862ZM88.3757 47.1505C88.2956 49.3137 87.9363 51.1542 87.3215 52.6911L89.1785 53.4339C89.897 51.6375 90.2878 49.5613 90.3743 47.2245L88.3757 47.1505ZM87.3167 52.7035C86.732 54.2236 85.965 55.4587 85.0292 56.4319L86.4708 57.8181C87.6184 56.6247 88.518 55.1514 89.1833 53.4215L87.3167 52.7035ZM85.0292 56.4319C84.0852 57.4137 83.0221 58.119 81.8364 58.5637L82.5386 60.4363C84.0195 59.881 85.3315 59.003 86.4708 57.8181L85.0292 56.4319ZM81.8008 58.5778C80.633 59.0675 79.4104 59.3125 78.125 59.3125V61.3125C79.6729 61.3125 81.1587 61.0158 82.5742 60.4222L81.8008 58.5778ZM78.125 59.3125C76.3854 59.3125 74.9052 58.9654 73.6554 58.3037L72.7196 60.0713C74.3031 60.9096 76.1146 61.3125 78.125 61.3125V59.3125ZM73.6664 58.3096C72.4146 57.6269 71.355 56.7189 70.4811 55.5791L68.8939 56.7959C69.9367 58.1561 71.2104 59.2481 72.7086 60.0654L73.6664 58.3096ZM70.503 55.6088C69.6523 54.4101 68.9893 53.0491 68.5183 51.5184L66.6067 52.1066C67.1357 53.8259 67.8893 55.3816 68.872 56.7662L70.503 55.6088ZM68.5267 51.5473C68.0935 49.9721 67.875 48.3117 67.875 46.5625H65.875C65.875 48.48 66.1148 50.3195 66.5983 52.0777L68.5267 51.5473ZM67.875 46.5625C67.875 44.6895 68.114 42.9749 68.5828 41.4123L66.6672 40.8377C66.136 42.6084 65.875 44.5189 65.875 46.5625H67.875ZM68.5782 41.4272C69.0915 39.8085 69.7729 38.4568 70.6092 37.3544L69.0158 36.1456C68.0188 37.4598 67.2419 39.0248 66.6718 40.8228L68.5782 41.4272ZM70.6061 37.3584C71.4775 36.2218 72.5072 35.3644 73.6972 34.7694L72.8028 32.9806C71.3261 33.7189 70.0642 34.7782 69.0189 36.1416L70.6061 37.3584ZM73.708 34.764C74.927 34.136 76.3091 33.8125 77.875 33.8125V31.8125C76.0243 31.8125 74.323 32.1974 72.792 32.986L73.708 34.764ZM110.125 35.1875L111.099 35.4147L111.272 34.6739L110.604 34.3096L110.125 35.1875ZM109.25 38.9375L108.803 39.8319L109.936 40.3985L110.224 39.1647L109.25 38.9375ZM107.875 38.4375L107.516 39.3708L107.558 39.3868L107.6 39.399L107.875 38.4375ZM106 37.875L105.757 38.8452L105.771 38.8484L106 37.875ZM103.812 37.5L103.648 38.4864L103.678 38.4913L103.708 38.4945L103.812 37.5ZM98.4375 37.875L98.0589 36.9495L98.0512 36.9526L98.0436 36.9559L98.4375 37.875ZM100.875 43L100.524 43.9363L100.547 43.9449L100.57 43.9524L100.875 43ZM103.938 43.8125L103.734 44.7915L103.741 44.7931L103.938 43.8125ZM106.375 44.3125L106.662 43.3547L106.624 43.3431L106.585 43.3347L106.375 44.3125ZM109.375 45.8125L108.735 46.5807L108.758 46.5998L108.782 46.6176L109.375 45.8125ZM111.188 47.75L110.326 48.257L110.343 48.2874L110.363 48.3165L111.188 47.75ZM111.312 55.875L110.486 55.3127L110.48 55.3203L111.312 55.875ZM108.688 58.375L109.202 59.2325L109.212 59.2267L108.688 58.375ZM105.125 59.75L104.911 58.7731L104.905 58.7746L105.125 59.75ZM95.5 59.375L95.2106 60.3322L95.2167 60.334L95.5 59.375ZM91.25 57.1875L90.307 56.8547L90.0821 57.4918L90.5894 57.9382L91.25 57.1875ZM92.75 52.9375L93.3902 52.1693L92.2856 51.2488L91.807 52.6047L92.75 52.9375ZM94.5 54.125L94.0097 54.9966L94.0414 55.0144L94.0742 55.0298L94.5 54.125ZM96.8125 55.0625L96.4821 56.0064L96.5035 56.0138L96.5252 56.0203L96.8125 55.0625ZM99.4375 55.6875L99.2586 56.6714L99.2804 56.6753L99.3024 56.6783L99.4375 55.6875ZM106.125 55L105.678 54.1056L106.125 55ZM108.25 51.9375L109.236 52.1065L109.25 52.0226V51.9375H108.25ZM108.125 51L107.13 51.0995L107.136 51.1588L107.149 51.2169L108.125 51ZM107.688 49.8125L106.813 50.2981L106.833 50.3335L106.855 50.3672L107.688 49.8125ZM106.625 48.75L106.037 49.5587L106.053 49.5707L106.07 49.5821L106.625 48.75ZM104.625 48.0625L104.48 49.052L104.484 49.0524L104.625 48.0625ZM99.875 47.0625L99.5928 48.0219L99.6003 48.024L99.875 47.0625ZM93.6875 43.25L92.8438 43.7869L92.8582 43.8095L92.8738 43.8312L93.6875 43.25ZM106.5 33.9375L106.277 34.9124L106.283 34.9137L106.5 33.9375ZM109.151 34.9603L108.276 38.7103L110.224 39.1647L111.099 35.4147L109.151 34.9603ZM109.697 38.0431C109.285 37.837 108.761 37.6505 108.15 37.476L107.6 39.399C108.156 39.5578 108.548 39.7046 108.803 39.8319L109.697 38.0431ZM108.234 37.5042C107.641 37.2761 106.971 37.0762 106.229 36.9016L105.771 38.8484C106.446 39.0072 107.026 39.1823 107.516 39.3708L108.234 37.5042ZM106.243 36.9049C105.524 36.7253 104.748 36.593 103.917 36.5055L103.708 38.4945C104.46 38.5737 105.143 38.6914 105.757 38.8451L106.243 36.9049ZM103.977 36.5136C103.18 36.3808 102.416 36.3125 101.688 36.3125V38.3125C102.292 38.3125 102.945 38.3692 103.648 38.4864L103.977 36.5136ZM101.688 36.3125C100.34 36.3125 99.1227 36.5142 98.0589 36.9495L98.8161 38.8005C99.5856 38.4858 100.535 38.3125 101.688 38.3125V36.3125ZM98.0436 36.9559C97.4611 37.2055 96.963 37.5804 96.6171 38.1076C96.2714 38.6343 96.125 39.2407 96.125 39.875H98.125C98.125 39.5509 98.1973 39.3449 98.2892 39.2049C98.3807 39.0654 98.5389 38.9195 98.8314 38.7941L98.0436 36.9559ZM96.125 39.875C96.125 41.0088 96.7525 41.891 97.6953 42.5196L98.8047 40.8554C98.2475 40.484 98.125 40.1579 98.125 39.875H96.125ZM97.6953 42.5196C98.5194 43.0689 99.465 43.5393 100.524 43.9363L101.226 42.0637C100.285 41.7107 99.4806 41.3061 98.8047 40.8554L97.6953 42.5196ZM100.57 43.9524C101.643 44.2956 102.697 44.5756 103.734 44.7915L104.141 42.8335C103.178 42.6328 102.191 42.371 101.18 42.0476L100.57 43.9524ZM103.741 44.7931C104.781 45.0011 105.589 45.1667 106.165 45.2903L106.585 43.3347C105.995 43.2083 105.177 43.0406 104.134 42.8319L103.741 44.7931ZM106.088 45.2703C107.25 45.6189 108.117 46.0659 108.735 46.5807L110.015 45.0443C109.133 44.3091 108 43.7561 106.662 43.3547L106.088 45.2703ZM108.782 46.6176C109.486 47.1362 109.99 47.6857 110.326 48.257L112.049 47.243C111.552 46.3976 110.848 45.6555 109.968 45.0074L108.782 46.6176ZM110.363 48.3165C110.753 48.8832 111.011 49.4737 111.149 50.0919L113.101 49.6581C112.905 48.7763 112.539 47.9501 112.012 47.1835L110.363 48.3165ZM111.149 50.0919C111.301 50.7767 111.375 51.433 111.375 52.0625H113.375C113.375 51.2753 113.282 50.4733 113.101 49.6581L111.149 50.0919ZM111.375 52.0625C111.375 53.401 111.061 54.4664 110.486 55.3127L112.139 56.4373C112.981 55.2002 113.375 53.724 113.375 52.0625H111.375ZM110.48 55.3203C109.898 56.1933 109.131 56.9278 108.163 57.5233L109.212 59.2267C110.41 58.4889 111.393 57.5567 112.145 56.4297L110.48 55.3203ZM108.173 57.5175C107.235 58.0802 106.152 58.5018 104.911 58.7731L105.339 60.7269C106.765 60.4149 108.056 59.9198 109.202 59.2325L108.173 57.5175ZM104.905 58.7746C103.684 59.0503 102.466 59.1875 101.25 59.1875V61.1875C102.618 61.1875 103.983 61.033 105.345 60.7254L104.905 58.7746ZM101.25 59.1875C99.3415 59.1875 97.5205 58.9292 95.7833 58.416L95.2167 60.334C97.1462 60.9041 99.1585 61.1875 101.25 61.1875V59.1875ZM95.7894 58.4178C94.0895 57.9039 92.8142 57.2319 91.9106 56.4368L90.5894 57.9382C91.7692 58.9764 93.3271 59.7628 95.2106 60.3322L95.7894 58.4178ZM92.193 57.5203L93.693 53.2703L91.807 52.6047L90.307 56.8547L92.193 57.5203ZM92.1098 53.7057C92.6638 54.1674 93.299 54.5968 94.0097 54.9966L94.9903 53.2534C94.3677 52.9032 93.8362 52.5409 93.3902 52.1693L92.1098 53.7057ZM94.0742 55.0298C94.8173 55.3795 95.6204 55.7047 96.4821 56.0064L97.1429 54.1186C96.338 53.8369 95.5994 53.5372 94.9258 53.2202L94.0742 55.0298ZM96.5252 56.0203C97.3965 56.2817 98.3079 56.4985 99.2586 56.6714L99.6164 54.7036C98.7338 54.5432 97.8951 54.3433 97.0998 54.1047L96.5252 56.0203ZM99.3024 56.6783C100.261 56.8091 101.202 56.875 102.125 56.875V54.875C101.298 54.875 100.447 54.8159 99.5726 54.6967L99.3024 56.6783ZM102.125 56.875C103.757 56.875 105.247 56.5569 106.572 55.8944L105.678 54.1056C104.669 54.6097 103.493 54.875 102.125 54.875V56.875ZM106.572 55.8944C108.065 55.1481 108.94 53.8301 109.236 52.1065L107.264 51.7685C107.06 52.9615 106.519 53.6852 105.678 54.1056L106.572 55.8944ZM109.25 51.9375C109.25 51.5867 109.193 51.1957 109.101 50.7831L107.149 51.2169C107.224 51.5543 107.25 51.7883 107.25 51.9375H109.25ZM109.12 50.9005C109.061 50.3088 108.853 49.7583 108.52 49.2578L106.855 50.3672C107.022 50.6167 107.106 50.8579 107.13 51.0995L109.12 50.9005ZM108.562 49.3269C108.251 48.7681 107.762 48.3063 107.18 47.9179L106.07 49.5821C106.488 49.8604 106.707 50.1069 106.813 50.2981L108.562 49.3269ZM107.213 47.9413C106.569 47.473 105.721 47.2089 104.766 47.0726L104.484 49.0524C105.279 49.1661 105.764 49.3604 106.037 49.5587L107.213 47.9413ZM104.77 47.073C103.099 46.8286 101.56 46.5039 100.15 46.101L99.6003 48.024C101.107 48.4544 102.734 48.7964 104.48 49.052L104.77 47.073ZM100.157 46.1031C98.8051 45.7055 97.6572 45.2156 96.702 44.6425L95.673 46.3575C96.8011 47.0344 98.1115 47.5862 99.5928 48.0219L100.157 46.1031ZM96.702 44.6425C95.7627 44.0789 95.0368 43.4185 94.5012 42.6688L92.8738 43.8312C93.5882 44.8315 94.5289 45.6711 95.673 46.3575L96.702 44.6425ZM94.5312 42.7131C94.0611 41.9745 93.8125 41.1027 93.8125 40.0625H91.8125C91.8125 41.439 92.1472 42.6921 92.8438 43.7869L94.5312 42.7131ZM93.8125 40.0625C93.8125 37.966 94.489 36.6366 95.6849 35.8286L94.5651 34.1714C92.6777 35.4467 91.8125 37.4923 91.8125 40.0625H93.8125ZM95.6849 35.8286C96.9882 34.948 99.0255 34.4375 101.938 34.4375V32.4375C98.8495 32.4375 96.3452 32.9687 94.5651 34.1714L95.6849 35.8286ZM101.938 34.4375C103.45 34.4375 104.896 34.5967 106.277 34.9124L106.723 32.9626C105.187 32.6117 103.591 32.4375 101.938 32.4375V34.4375ZM106.283 34.9137C107.73 35.2353 108.841 35.626 109.646 36.0654L110.604 34.3096C109.576 33.749 108.27 33.3064 106.717 32.9613L106.283 34.9137ZM119.75 45.375H118.75V47.6176L120.418 46.1189L119.75 45.375ZM135.125 31.5625L135.922 30.9581L135.265 30.0925L134.457 30.8186L135.125 31.5625ZM137.875 35.1875L138.565 35.9109L139.211 35.2944L138.672 34.5831L137.875 35.1875ZM129.625 43.0625L128.935 42.3391L128.254 42.9887L128.861 43.7075L129.625 43.0625ZM141.125 56.6875L141.939 57.2687L142.39 56.6364L141.889 56.0425L141.125 56.6875ZM138.625 60.1875L137.871 60.8443L138.703 61.7992L139.439 60.7687L138.625 60.1875ZM126.375 46.125L127.129 45.4682L126.443 44.6804L125.686 45.4004L126.375 46.125ZM121.25 51L120.561 50.2754L120.25 50.5711V51H121.25ZM121.25 59.4375L121.382 60.4287L122.25 60.313V59.4375H121.25ZM117.5 59.9375H116.5V61.0797L117.632 60.9287L117.5 59.9375ZM117.5 18.5625L117.184 17.6138L116.5 17.8417V18.5625H117.5ZM119.75 17.8125H120.75V16.4251L119.434 16.8638L119.75 17.8125ZM120.418 46.1189L135.793 32.3064L134.457 30.8186L119.082 44.6311L120.418 46.1189ZM134.328 32.1669L137.078 35.7919L138.672 34.5831L135.922 30.9581L134.328 32.1669ZM137.185 34.4641L128.935 42.3391L130.315 43.7859L138.565 35.9109L137.185 34.4641ZM128.861 43.7075L140.361 57.3325L141.889 56.0425L130.389 42.4175L128.861 43.7075ZM140.311 56.1063L137.811 59.6063L139.439 60.7687L141.939 57.2687L140.311 56.1063ZM139.379 59.5307L127.129 45.4682L125.621 46.7818L137.871 60.8443L139.379 59.5307ZM125.686 45.4004L120.561 50.2754L121.939 51.7246L127.064 46.8496L125.686 45.4004ZM120.25 51V59.4375H122.25V51H120.25ZM121.118 58.4463L117.368 58.9463L117.632 60.9287L121.382 60.4287L121.118 58.4463ZM118.5 59.9375V18.5625H116.5V59.9375H118.5ZM117.816 19.5112L120.066 18.7612L119.434 16.8638L117.184 17.6138L117.816 19.5112ZM118.75 17.8125V45.375H120.75V17.8125H118.75ZM153.875 55.1875L154.822 55.5092L154.967 55.0806L154.741 54.6883L153.875 55.1875ZM143 36.3125L142.386 35.5231L141.699 36.0575L142.134 36.8117L143 36.3125ZM146.375 33.6875L147.249 33.2024L146.683 32.1811L145.761 32.8981L146.375 33.6875ZM155.562 50.25L154.688 50.7351L155.785 52.7135L156.51 50.5702L155.562 50.25ZM161.625 32.3125L162.097 31.431L161.056 30.8732L160.678 31.9923L161.625 32.3125ZM165.125 34.1875L166.072 34.5096L166.345 33.7066L165.597 33.306L165.125 34.1875ZM152.875 70.1875L152.342 71.0337L153.414 71.7084L153.822 70.5096L152.875 70.1875ZM149.5 68.0625L148.553 67.7408L148.299 68.4882L148.967 68.9087L149.5 68.0625ZM154.741 54.6883L143.866 35.8133L142.134 36.8117L153.009 55.6867L154.741 54.6883ZM143.614 37.1019L146.989 34.4769L145.761 32.8981L142.386 35.5231L143.614 37.1019ZM145.501 34.1726L154.688 50.7351L156.437 49.7649L147.249 33.2024L145.501 34.1726ZM156.51 50.5702L162.572 32.6327L160.678 31.9923L154.615 49.9298L156.51 50.5702ZM161.153 33.194L164.653 35.069L165.597 33.306L162.097 31.431L161.153 33.194ZM164.178 33.8654L151.928 69.8654L153.822 70.5096L166.072 34.5096L164.178 33.8654ZM153.408 69.3413L150.033 67.2163L148.967 68.9087L152.342 71.0337L153.408 69.3413ZM150.447 68.3842L154.822 55.5092L152.928 54.8658L148.553 67.7408L150.447 68.3842Z" fill="black"/>
</g>
<g clip-path="url(#clip0_3_916)">
<g filter="url(#filter1_d_3_916)">
<g filter="url(#filter2_d_3_916)">
<path d="M201.068 25.6856C199.714 23.6837 197.437 22.9222 195.158 23.0821C194.207 22.9563 193.294 22.9417 192.633 23.0439C191.166 23.271 190.053 24.1097 189.214 25.2203C184.387 23.5587 179.07 22.8954 174.251 23.5001C173.725 23.566 173.765 24.2496 174.249 24.3306C174.249 24.3318 174.248 24.3325 174.249 24.3338C177.054 33.6662 167.093 39.9688 168.163 49.2192C168.721 54.0462 171.986 58.0771 176.284 59.8654C175.753 62.5143 175.284 65.1847 174.549 67.7859C173.971 69.8349 173.139 71.7764 172.369 73.744C169.462 72.8606 166.49 72.7673 164.347 75.3379C164.097 75.6377 164.16 76.0611 164.491 76.2621C167.244 77.9298 170.167 78.9521 173.321 79.5344C175.144 79.8708 179.592 81.0279 181.427 80.2345C185.217 78.5966 179.997 75.9528 177.754 75.3114C178.137 70.2868 178.621 65.7293 180.44 60.8308C184.377 61.0135 188.585 59.2124 190.869 55.8785C194.419 50.6995 193.312 44.3337 193.885 38.2365C200.632 39.9098 204.567 30.8587 201.068 25.6856ZM194.087 31.0559C192.657 33.7656 191.977 36.6422 191.702 39.7576C186.88 36.0348 180.402 34.7384 174.418 34.9403C175.578 31.9525 176.349 28.979 175.826 26.1505C177.588 28.0913 179.964 29.0164 182.609 29.7073C186.313 30.6748 190.254 31.5289 194.087 31.0559ZM190.933 40.4957C185.254 41.9718 178.65 39.374 174.206 35.7525C180.422 35.7734 185.474 37.7613 190.933 40.4957ZM175.726 24.4908C180.189 24.9375 184.172 25.753 188.203 26.9572C187.852 27.736 187.58 28.5537 187.393 29.3517C187.385 29.3864 187.406 29.4087 187.405 29.4409C182.868 28.9158 178.249 27.5079 175.726 24.4908ZM176.749 77.482C176.858 78.0163 177.57 77.7874 177.604 77.327C177.624 77.0537 177.644 76.7895 177.664 76.5195C178.384 76.6444 179.09 76.8313 179.766 77.1457C180.891 78.8933 180.652 79.5121 179.049 79.0022C177.76 79.3239 175.502 78.6745 174.209 78.4584C171.216 77.9582 168.405 77.0519 165.749 75.5914C167.514 74.0109 169.875 74.1508 172.159 74.2986C171.944 74.8605 171.73 75.423 171.537 75.9946C171.351 76.5449 172.143 76.7569 172.417 76.3303C175.331 71.7893 176.833 65.5509 176.875 60.1042C177.74 60.4151 178.63 60.6674 179.559 60.7837C179.603 60.7893 179.648 60.786 179.693 60.7911C177.487 65.1898 176.012 70.5788 176.479 75.5746C176.376 75.8086 176.396 76.0789 176.574 76.245C176.628 76.658 176.667 77.0753 176.749 77.482ZM191.094 51.7798C189.113 58.2987 182.053 61.0428 176.166 58.1784C165.132 52.8104 170.242 44.7794 173.713 36.6729C177.766 40.343 186.212 44.4904 191.561 41.8204C191.511 45.1035 192.054 48.6226 191.094 51.7798Z" fill="#F26800"/>
<path d="M200.655 25.9654L200.655 25.9655C202.281 28.3702 202.199 31.7258 200.874 34.2985C199.559 36.8535 197.093 38.517 194.004 37.751L193.441 37.6115L193.387 38.1886C193.242 39.7334 193.204 41.2915 193.172 42.8254C193.17 42.9144 193.168 43.0033 193.166 43.0922C193.136 44.54 193.106 45.9639 192.995 47.361C192.76 50.3229 192.161 53.1087 190.457 55.5948C188.282 58.7684 184.25 60.5068 180.462 60.331L180.098 60.3141L180.091 60.3335L179.748 60.2941C179.699 60.2885 179.653 60.2878 179.636 60.2874C179.624 60.2872 179.618 60.2869 179.616 60.2868C178.737 60.1764 177.886 59.9364 177.042 59.6333L176.854 59.5659L176.855 59.5616L176.475 59.4034C174.118 58.4226 172.085 56.7416 170.672 54.6202C171.788 56.0954 173.497 57.4356 175.948 58.6282C182.096 61.6194 189.497 58.7555 191.573 51.9265C192.074 50.2764 192.178 48.5482 192.168 46.8456C192.164 46.1032 192.138 45.3578 192.112 44.6241C192.109 44.5163 192.105 44.4088 192.101 44.3016C192.072 43.4608 192.048 42.6363 192.06 41.8292L192.073 41.0052L191.337 41.3726C188.843 42.6175 185.556 42.2977 182.316 41.1525C179.092 40.0128 176.025 38.0929 174.047 36.3022L173.662 35.9533L173.891 36.1402C178.402 39.8164 185.168 42.5114 191.06 40.98L192.114 40.7061L192.12 40.711L192.121 40.7043L192.348 40.6453L192.135 40.5389L192.2 39.8028C192.471 36.7333 193.138 33.9257 194.529 31.2903L194.976 30.4419L194.024 30.5593C190.295 31.0196 186.436 30.1902 182.734 29.2233C180.114 28.5387 177.856 27.644 176.195 25.8145L175.016 24.5149L175.335 26.2404C175.831 28.9261 175.104 31.7899 173.952 34.7582L173.761 35.2507L173.194 35.2488C174.797 31.8955 175.966 28.3437 174.735 24.2185C174.733 24.2057 174.729 24.1931 174.725 24.1805L174.67 24.0054L175.344 24.8114C177.997 27.9843 182.786 29.4097 187.349 29.9379L187.892 30.0007L187.905 29.4535C187.905 29.4254 187.904 29.3996 187.901 29.3766C188.08 28.6378 188.335 27.8832 188.659 27.164L188.894 26.6419L188.345 26.4779C184.284 25.2649 180.27 24.443 175.775 23.993L175.021 23.9174C179.566 23.4692 184.524 24.1347 189.052 25.6934L189.394 25.8112L189.612 25.5228C190.396 24.4862 191.404 23.7406 192.711 23.5383C193.309 23.4458 194.17 23.4559 195.093 23.5781L195.143 23.5847L195.194 23.5812C197.346 23.4301 199.427 24.1501 200.655 25.9654ZM176.977 75.5291C176.598 71.4776 177.529 67.1368 179.104 63.2927C177.955 67.2893 177.57 71.1413 177.255 75.2722L177.224 75.68L177.617 75.7924C178.051 75.9163 178.598 76.1183 179.166 76.373C178.697 76.2179 178.222 76.1087 177.748 76.0266L177.206 75.9325L177.165 76.4815C177.158 76.5802 177.151 76.6786 177.143 76.7771C177.133 76.6926 177.122 76.6068 177.112 76.5192C177.098 76.4099 177.085 76.2977 177.07 76.1815L177.046 76.0021L176.918 75.8829C176.918 75.8813 176.918 75.879 176.917 75.8757C176.915 75.857 176.917 75.8213 176.936 75.7774L176.989 75.6586L176.977 75.5291ZM180.822 78.0702C180.694 77.7283 180.478 77.3304 180.191 76.8831C180.689 77.1586 181.158 77.4636 181.53 77.7802C182.071 78.2407 182.272 78.6108 182.268 78.8546C182.265 79.0346 182.129 79.386 181.229 79.7751L181.228 79.7751C180.864 79.9328 180.323 80.0089 179.643 80.0069C178.973 80.0048 178.214 79.9276 177.441 79.8132C176.394 79.6583 175.37 79.4442 174.521 79.2668C174.102 79.1792 173.726 79.1006 173.411 79.0424L173.321 79.5344L173.411 79.0424C170.307 78.4694 167.443 77.4661 164.749 75.8343C164.71 75.8107 164.698 75.7838 164.695 75.7624C164.692 75.7396 164.695 75.702 164.731 75.659C166.111 74.0032 167.873 73.5386 169.796 73.7173C168.246 73.7586 166.692 74.0748 165.415 75.2181L164.889 75.689L165.509 76.0297C168.221 77.521 171.087 78.4437 174.128 78.9519L174.209 78.4584L174.128 78.9519C174.417 79.0002 174.759 79.0715 175.142 79.1514L175.229 79.1696C175.642 79.2557 176.095 79.349 176.549 79.4254C177.381 79.5652 178.296 79.6636 179.029 79.5191C179.398 79.6279 179.737 79.6895 180.026 79.6724C180.362 79.6525 180.739 79.5097 180.897 79.1019C181.026 78.7668 180.942 78.3902 180.822 78.0702ZM172.869 73.8433L172.867 73.8432C173.004 73.496 173.142 73.1479 173.282 72.7984C173.913 71.2144 174.556 69.6024 175.03 67.923L175.03 67.923C175.526 66.166 175.903 64.3757 176.256 62.5945C175.856 67.2341 174.456 72.148 172.099 75.8978C172.265 75.4245 172.443 74.9546 172.626 74.4786L172.869 73.8433ZM171.956 76.0523C171.955 76.052 171.955 76.0519 171.955 76.0519L171.956 76.0523ZM169.003 48.4066C168.898 49.5727 168.965 50.7185 169.275 51.8279C168.975 50.9767 168.766 50.0846 168.659 49.1628C168.178 45.0014 170.013 41.4567 171.915 37.7841C172.043 37.5358 172.172 37.2869 172.301 37.0372C172.566 36.5221 172.829 36.0039 173.082 35.481L173.524 35.8412L173.253 36.4749C172.912 37.2725 172.548 38.0822 172.184 38.8932C171.639 40.1078 171.093 41.3255 170.617 42.5105C169.816 44.5019 169.175 46.4874 169.003 48.4066ZM191.457 40.1993L191.156 40.0484C186.77 37.8515 182.606 36.1135 177.874 35.4955C182.726 35.8202 187.6 37.222 191.398 40.1535L191.457 40.1993ZM174.729 24.4711L174.732 24.46C174.731 24.4658 174.729 24.4698 174.729 24.4711Z" stroke="white"/>
</g>
<mask id="path-5-inside-1_3_916" fill="white">
<path d="M174.574 42.9881C173.658 42.6474 173.585 42.283 174.356 41.8954C174.679 41.8033 174.599 41.2501 174.255 41.2958C172.352 41.5472 172.987 44.3547 174.79 43.6975C175.237 43.5345 175.03 42.878 174.574 42.9881Z"/>
</mask>
<path d="M174.574 42.9881C173.658 42.6474 173.585 42.283 174.356 41.8954C174.679 41.8033 174.599 41.2501 174.255 41.2958C172.352 41.5472 172.987 44.3547 174.79 43.6975C175.237 43.5345 175.03 42.878 174.574 42.9881Z" fill="#F26800"/>
<path d="M174.574 42.9881L174.228 43.9259L174.515 44.0324L174.811 43.9608L174.574 42.9881ZM174.356 41.8954L174.08 40.933L173.99 40.9588L173.906 41.0011L174.356 41.8954ZM174.255 41.2958L174.388 42.2877L174.389 42.2876L174.255 41.2958ZM174.79 43.6975L175.134 44.6378L175.134 44.6377L174.79 43.6975ZM174.921 42.0502C174.73 41.9795 174.646 41.9292 174.624 41.9135C174.583 41.8847 174.757 41.988 174.813 42.2653C174.843 42.4145 174.825 42.5575 174.781 42.6737C174.742 42.7804 174.689 42.8425 174.669 42.8638C174.639 42.8963 174.658 42.8645 174.807 42.7897L173.906 41.0011C173.669 41.12 173.408 41.2791 173.204 41.4997C172.988 41.7316 172.749 42.1362 172.853 42.6533C172.945 43.1128 173.26 43.3953 173.467 43.5427C173.692 43.7034 173.96 43.8263 174.228 43.9259L174.921 42.0502ZM174.632 42.8577C175.437 42.6283 175.615 41.8516 175.543 41.3909C175.503 41.1387 175.384 40.8499 175.138 40.6224C174.869 40.3738 174.502 40.2533 174.122 40.3039L174.389 42.2876C174.18 42.3154 173.953 42.2469 173.785 42.0921C173.64 41.9583 173.585 41.8051 173.568 41.697C173.551 41.5873 173.56 41.4472 173.634 41.3018C173.716 41.1385 173.873 40.9922 174.08 40.933L174.632 42.8577ZM174.122 40.3038C173.38 40.4019 172.787 40.7738 172.435 41.3379C172.098 41.8772 172.035 42.5065 172.158 43.0546C172.281 43.6019 172.608 44.1488 173.155 44.4864C173.73 44.8407 174.432 44.8937 175.134 44.6378L174.446 42.7572C174.338 42.7967 174.273 42.7978 174.246 42.7957C174.22 42.7937 174.208 42.7876 174.201 42.7833C174.182 42.7715 174.131 42.724 174.108 42.6202C174.085 42.5171 174.107 42.4384 174.13 42.4012C174.14 42.3851 174.155 42.3678 174.184 42.3501C174.213 42.3319 174.275 42.3027 174.388 42.2877L174.122 40.3038ZM175.134 44.6377C175.488 44.5085 175.773 44.2512 175.924 43.9069C176.067 43.5805 176.065 43.2364 175.975 42.9468C175.793 42.357 175.163 41.8162 174.338 42.0154L174.811 43.9608C174.671 43.9946 174.49 43.976 174.329 43.8739C174.185 43.7821 174.103 43.6527 174.066 43.534C174.029 43.4151 174.023 43.2589 174.094 43.0979C174.172 42.9191 174.315 42.805 174.446 42.7574L175.134 44.6377Z" fill="white" mask="url(#path-5-inside-1_3_916)"/>
<path d="M177.371 45.192C177.296 45.2491 177.209 45.2873 177.108 45.2971C177.176 45.273 177.251 45.245 177.326 45.2124C177.34 45.206 177.356 45.1993 177.371 45.192Z" fill="#F26800" stroke="white"/>
<path d="M174.582 49.2647C174.659 49.3544 174.754 49.4321 174.865 49.4888C174.755 49.4438 174.657 49.3694 174.582 49.2647Z" fill="#F26800" stroke="white"/>
<path d="M183.916 53.348L183.927 53.5122C183.914 53.4605 183.911 53.4056 183.916 53.348Z" fill="#F26800" stroke="white"/>
<mask id="path-10-inside-2_3_916" fill="white">
<path d="M186.107 48.131C185.3 47.2892 184.099 47.9783 183.419 48.6329C183.173 48.8694 183.513 49.2903 183.791 49.0956C184.133 48.8565 184.559 48.5131 184.991 48.5106C185.635 48.5069 185.814 49.0395 185.419 49.4299C185.106 49.739 185.472 50.1449 185.818 50.0811C186.74 49.9111 186.624 48.6709 186.107 48.131Z"/>
</mask>
<path d="M186.107 48.131C185.3 47.2892 184.099 47.9783 183.419 48.6329C183.173 48.8694 183.513 49.2903 183.791 49.0956C184.133 48.8565 184.559 48.5131 184.991 48.5106C185.635 48.5069 185.814 49.0395 185.419 49.4299C185.106 49.739 185.472 50.1449 185.818 50.0811C186.74 49.9111 186.624 48.6709 186.107 48.131Z" fill="#F26800"/>
<path d="M186.107 48.131L186.827 47.4393L186.827 47.4392L186.107 48.131ZM183.419 48.6329L184.112 49.3552L184.112 49.3551L183.419 48.6329ZM183.791 49.0956L183.218 48.2749L183.218 48.2751L183.791 49.0956ZM184.991 48.5106L184.983 47.51L184.983 47.51L184.991 48.5106ZM185.419 49.4299L184.716 48.7171L184.716 48.7172L185.419 49.4299ZM185.818 50.0811L185.635 49.0971L185.635 49.0971L185.818 50.0811ZM186.827 47.4392C186.087 46.6671 185.151 46.6402 184.421 46.864C183.732 47.0748 183.13 47.5211 182.725 47.9107L184.112 49.3551C184.388 49.0902 184.726 48.8646 185.01 48.7776C185.143 48.7369 185.223 48.7389 185.264 48.7463C185.29 48.7511 185.328 48.7616 185.386 48.8228L186.827 47.4392ZM182.726 47.9106C182.123 48.4904 182.318 49.2651 182.631 49.6534C182.945 50.0417 183.67 50.4026 184.365 49.9162L183.218 48.2751C183.385 48.1579 183.603 48.1167 183.807 48.1646C183.987 48.2069 184.111 48.3061 184.186 48.3985C184.26 48.4913 184.329 48.6307 184.333 48.8108C184.338 49.014 184.257 49.2154 184.112 49.3552L182.726 47.9106ZM184.365 49.9164C184.58 49.766 184.703 49.6697 184.854 49.5837C184.999 49.501 185.035 49.5109 184.999 49.5111L184.983 47.51C184.515 47.5127 184.122 47.6956 183.86 47.845C183.605 47.9911 183.345 48.1861 183.218 48.2749L184.365 49.9164ZM184.999 49.5111C185.057 49.5108 184.802 49.516 184.673 49.2067C184.55 48.9123 184.708 48.7245 184.716 48.7171L186.122 50.1428C186.524 49.745 186.791 49.0956 186.516 48.4383C186.236 47.7659 185.569 47.5067 184.983 47.51L184.999 49.5111ZM184.716 48.7172C184.483 48.9471 184.322 49.257 184.303 49.6153C184.284 49.9612 184.403 50.2608 184.562 50.4808C184.858 50.8896 185.406 51.1748 186.001 51.0651L185.635 49.0971C185.883 49.0512 186.076 49.1653 186.18 49.3099C186.244 49.3978 186.309 49.5419 186.299 49.7267C186.288 49.9241 186.198 50.0674 186.122 50.1427L184.716 48.7172ZM186.001 51.0652C186.466 50.9795 186.858 50.7407 187.126 50.3801C187.382 50.0368 187.481 49.6451 187.5 49.3012C187.536 48.6459 187.291 47.9238 186.827 47.4393L185.386 48.8227C185.401 48.8382 185.438 48.8877 185.468 48.973C185.498 49.0566 185.507 49.1351 185.504 49.1883C185.501 49.2433 185.489 49.2272 185.523 49.1811C185.542 49.1564 185.567 49.1329 185.595 49.1156C185.623 49.0985 185.64 49.096 185.635 49.0971L186.001 51.0652Z" fill="white" mask="url(#path-10-inside-2_3_916)"/>
</g>
</g>
<defs>
<filter id="filter0_d_3_916" x="0.25" y="16.6875" width="168.875" height="61.5" filterUnits="userSpaceOnUse" color-interpolation-filters="sRGB">
<feFlood flood-opacity="0" result="BackgroundImageFix"/>
<feColorMatrix in="SourceAlpha" type="matrix" values="0 0 0 0 0 0 0 0 0 0 0 0 0 0 0 0 0 0 127 0" result="hardAlpha"/>
<feOffset dy="4"/>
<feGaussianBlur stdDeviation="2"/>
<feComposite in2="hardAlpha" operator="out"/>
<feColorMatrix type="matrix" values="0 0 0 0 0 0 0 0 0 0 0 0 0 0 0 0 0 0 0.25 0"/>
<feBlend mode="normal" in2="BackgroundImageFix" result="effect1_dropShadow_3_916"/>
<feBlend mode="normal" in="SourceGraphic" in2="effect1_dropShadow_3_916" result="shape"/>
</filter>
<filter id="filter1_d_3_916" x="160.194" y="22.9763" width="46.1769" height="65.5308" filterUnits="userSpaceOnUse" color-interpolation-filters="sRGB">
<feFlood flood-opacity="0" result="BackgroundImageFix"/>
<feColorMatrix in="SourceAlpha" type="matrix" values="0 0 0 0 0 0 0 0 0 0 0 0 0 0 0 0 0 0 127 0" result="hardAlpha"/>
<feOffset dy="4"/>
<feGaussianBlur stdDeviation="2"/>
<feComposite in2="hardAlpha" operator="out"/>
<feColorMatrix type="matrix" values="0 0 0 0 0 0 0 0 0 0 0 0 0 0 0 0 0 0 0.25 0"/>
<feBlend mode="normal" in2="BackgroundImageFix" result="effect1_dropShadow_3_916"/>
<feBlend mode="normal" in="SourceGraphic" in2="effect1_dropShadow_3_916" result="shape"/>
</filter>
<filter id="filter2_d_3_916" x="160.194" y="22.9763" width="46.1769" height="65.5308" filterUnits="userSpaceOnUse" color-interpolation-filters="sRGB">
<feFlood flood-opacity="0" result="BackgroundImageFix"/>
<feColorMatrix in="SourceAlpha" type="matrix" values="0 0 0 0 0 0 0 0 0 0 0 0 0 0 0 0 0 0 127 0" result="hardAlpha"/>
<feOffset dy="4"/>
<feGaussianBlur stdDeviation="2"/>
<feComposite in2="hardAlpha" operator="out"/>
<feColorMatrix type="matrix" values="0 0 0 0 0 0 0 0 0 0 0 0 0 0 0 0 0 0 0.25 0"/>
<feBlend mode="normal" in2="BackgroundImageFix" result="effect1_dropShadow_3_916"/>
<feBlend mode="normal" in="SourceGraphic" in2="effect1_dropShadow_3_916" result="shape"/>
</filter>
<clipPath id="clip0_3_916">
<rect width="59.0944" height="60.3008" fill="white" transform="matrix(0.974333 0.22511 -0.222589 0.974912 160.422 14.6972)"/>
</clipPath>
</defs>
</svg>
